<svg xmlns="http://www.w3.org/2000/svg" width="221.222" height="182.912" viewBox="0 0 221.222 182.912">
  <g id="Group_11221" data-name="Group 11221" transform="translate(-73.396 -267.795)">
    <path id="Path_8186" data-name="Path 8186" d="M253.705,140.018l-26.28-35.492a5.808,5.808,0,0,0-4.679-2.355H143.389a5.808,5.808,0,0,0-4.679,2.355l-26.28,35.492V183.27a8.873,8.873,0,0,0,8.873,8.873H244.848a8.873,8.873,0,0,0,8.873-8.873Z" transform="translate(4.393 255.565)" fill="#a9c9ff" stroke="#fff" stroke-width="6" opacity="0.12"/>
    <path id="Path_8187" data-name="Path 8187" d="M244.651,192.738H121.09a9.68,9.68,0,0,1-9.68-9.68V139.822a.807.807,0,0,1,.153-.484l26.28-35.492a6.663,6.663,0,0,1,5.332-2.686h79.357a6.663,6.663,0,0,1,5.332,2.686l26.28,35.492a.807.807,0,0,1,.153.484v43.252A9.68,9.68,0,0,1,244.651,192.738ZM113.039,140.089v42.986a8.066,8.066,0,0,0,8.066,8.066H244.651a8.066,8.066,0,0,0,8.066-8.066V140.089L226.6,104.8a5.042,5.042,0,0,0-4.033-2.033H143.192a5.042,5.042,0,0,0-4.033,2.033Z" transform="translate(4.59 255.76)" fill="#a9abad"/>
    <path id="Path_8188" data-name="Path 8188" d="M253.7,149.078V192.33a8.873,8.873,0,0,1-8.873,8.873H121.283a8.873,8.873,0,0,1-8.873-8.873V149.078h38.243l3.6,17.746a7.058,7.058,0,0,0,6.921,5.646h44.236a7.082,7.082,0,0,0,6.953-5.767l3.323-17.674Z" transform="translate(4.397 246.504)" fill="#d4d5d6"/>
    <path id="Path_8189" data-name="Path 8189" d="M244.643,201.806H121.09a9.68,9.68,0,0,1-9.68-9.68V148.891a.807.807,0,0,1,.807-.807H150.46a.807.807,0,0,1,.807.645l3.6,17.746a6.268,6.268,0,0,0,6.13,5.025H205.23a6.268,6.268,0,0,0,6.155-5.114l3.323-17.673a.807.807,0,0,1,.807-.653h38a.807.807,0,0,1,.807.807v43.252a9.68,9.68,0,0,1-9.68,9.688ZM113.039,149.7v42.445a8.066,8.066,0,0,0,8.066,8.066H244.643a8.066,8.066,0,0,0,8.066-8.066V149.7H216.177L212.95,166.71a7.889,7.889,0,0,1-7.744,6.453H160.994a7.881,7.881,0,0,1-7.712-6.316L149.8,149.7Z" transform="translate(4.59 246.692)" fill="#a9abad"/>
    <path id="Path_8190" data-name="Path 8190" d="M146.909,191.473H131.067a.807.807,0,0,1,0-1.613h15.842a.807.807,0,0,1,0,1.613Z" transform="translate(0.945 238.609)" fill="#fff"/>
    <path id="Path_8191" data-name="Path 8191" d="M161.483,84.745A1.613,1.613,0,0,1,160.2,84.1L149.222,69.58a1.616,1.616,0,1,1,2.581-1.944l10.97,14.52a1.618,1.618,0,0,1-1.291,2.589Z" transform="translate(-2.658 262.367)" fill="#3be692" opacity="0.1"/>
    <path id="Path_8192" data-name="Path 8192" d="M228.553,84.755a1.654,1.654,0,0,1-.976-.331,1.613,1.613,0,0,1-.315-2.259l10.978-14.52a1.613,1.613,0,0,1,2.573,1.944l-10.97,14.52A1.613,1.613,0,0,1,228.553,84.755Z" transform="translate(-17.748 262.357)" fill="#3be692" opacity="0.1"/>
    <path id="Path_8193" data-name="Path 8193" d="M197.9,77.422a1.613,1.613,0,0,1-1.613-1.613V55.763a1.613,1.613,0,0,1,3.227,0V75.808A1.613,1.613,0,0,1,197.9,77.422Z" transform="translate(-11.822 264.85)" fill="#3be692" opacity="0.1"/>
    <path id="Union_7" data-name="Union 7" d="M4.811,8.792A3.284,3.284,0,1,1,4.9,3.026,6,6,0,0,1,14.834,2.3a4.081,4.081,0,1,1,.032,7.353A6,6,0,0,1,4.811,8.792Z" transform="translate(273.913 355.909)" fill="#fff"/>
    <path id="Union_8" data-name="Union 8" d="M7.134,13.192a4.807,4.807,0,0,1-2.264.563,4.928,4.928,0,0,1,0-9.855,4.807,4.807,0,0,1,2.4.641A8.836,8.836,0,0,1,22,3.448a5.971,5.971,0,0,1,2.655-.619,6.124,6.124,0,0,1,0,12.248,5.972,5.972,0,0,1-2.608-.6A8.838,8.838,0,0,1,7.134,13.192Z" transform="translate(146.396 267.795)" fill="#fff"/>
    <path id="Union_9" data-name="Union 9" d="M7.134,13.192a4.807,4.807,0,0,1-2.264.563,4.928,4.928,0,0,1,0-9.855,4.807,4.807,0,0,1,2.4.641A8.836,8.836,0,0,1,22,3.448a5.971,5.971,0,0,1,2.655-.619,6.124,6.124,0,0,1,0,12.248,5.972,5.972,0,0,1-2.608-.6A8.838,8.838,0,0,1,7.134,13.192Z" transform="translate(73.396 335.904)" fill="#fff"/>
    <path id="Path_56222" data-name="Path 56222" d="M1189,449.28s5.5-6.937,11.24.716c0,0,5.5-8.133,8.849-1.2" transform="translate(-968 -164.211)" fill="none" stroke="rgba(72,129,255,0.06)" stroke-linecap="round" stroke-linejoin="round" stroke-width="5"/>
    <path id="Path_56223" data-name="Path 56223" d="M549,347.28s5.5-6.944,11.24.716c0,0,5.5-8.133,8.849-1.2" transform="translate(-287.924 -37.095)" fill="none" stroke="rgba(72,129,255,0.06)" stroke-linecap="round" stroke-linejoin="round" stroke-width="5"/>
  </g>
</svg>
