<svg xmlns="http://www.w3.org/2000/svg" width="16" height="16" viewBox="0 0 16 16">
  <path id="image_FILL1_wght400_GRAD0_opsz24_1_" data-name="image_FILL1_wght400_GRAD0_opsz24 (1)" d="M121.778,232A1.783,1.783,0,0,1,120,230.222V217.778A1.783,1.783,0,0,1,121.778,216h12.444A1.783,1.783,0,0,1,136,217.778v12.444A1.783,1.783,0,0,1,134.222,232Zm1.778-3.556h8.889a.43.43,0,0,0,.4-.244.391.391,0,0,0-.044-.467l-2.444-3.267a.444.444,0,0,0-.711,0l-2.311,3.089-1.644-2.2a.444.444,0,0,0-.711,0l-1.778,2.378a.391.391,0,0,0-.044.467A.43.43,0,0,0,123.556,228.444Z" transform="translate(-120 -216)" fill="rgba(41,45,50,0.6)"/>
</svg>
